<svg id="Layer_1" data-name="Layer 1" xmlns="http://www.w3.org/2000/svg" viewBox="0 0 934.5 314.5"><defs><style>.cls-1{font-size:100px;font-family:Raleway-Medium, Raleway;font-weight:500;}.cls-1,.cls-4{fill:#2e3192;}.cls-2{letter-spacing:-0.01em;}.cls-3{letter-spacing:-0.06em;}</style></defs><text class="cls-1" transform="translate(261.14 292)">Secu<tspan class="cls-2" x="235.5" y="0">r</tspan><tspan class="cls-3" x="270.6" y="0">e</tspan><tspan x="323.9" y="0">Vision</tspan></text><path class="cls-4" d="M567.65,262.92,315.84,172.49a8.33,8.33,0,0,0-10.76,5.41L280.76,253a9,9,0,0,0,5.38,11.2L538,354.61a8.33,8.33,0,0,0,10.76-5.41L573,274.12A9,9,0,0,0,567.65,262.92Z" transform="translate(-215.5 -172)"/><path class="cls-4" d="M560.28,349l13.33,4.79a5.1,5.1,0,0,0,6.59-3.31l16.53-51a5.52,5.52,0,0,0-3.3-6.87l-13.33-4.78a5.11,5.11,0,0,0-6.6,3.31l-16.52,51A5.5,5.5,0,0,0,560.28,349Z" transform="translate(-215.5 -172)"/><path class="cls-4" d="M453.24,327.74c-6.45,19.92-38.57,26.4-71.74,14.49s-54.84-37.71-48.39-57.63" transform="translate(-215.5 -172)"/><rect class="cls-4" y="106.87" width="11.71" height="191.13"/><ellipse class="cls-4" cx="103.23" cy="236.23" rx="24.48" ry="26.81"/><polygon class="cls-4" points="117.36 235.01 103.28 223.28 161.94 138.89 176.01 150.62 117.36 235.01"/><rect class="cls-4" x="265.41" y="359.32" width="13.23" height="96.84" transform="translate(464.26 -36.29) rotate(90)"/><path class="cls-4" d="M224.41,323.07c7.9,5.06,18.61,3.26,25.18-3.18,8.19-8,7.62-20.5,4.66-30.69-3.11-10.69-9.08-20.43-10.77-31.56-.71-4.7-.54-9.8,1.62-14.12s6-7.41,10.29-9.63a61.43,61.43,0,0,1,17.81-5.55,69.65,69.65,0,0,1,20.08-.31c1.61.2,3-1.52,3-3a3.08,3.08,0,0,0-3-3,74.22,74.22,0,0,0-35.54,4.3,38,38,0,0,0-13.25,8,24.51,24.51,0,0,0-7,14.09c-1.58,11.22,3,21.91,7.24,32,3.79,9.11,8.24,20.71,3.94,30.42a14.6,14.6,0,0,1-4,5.48,16.49,16.49,0,0,1-5.31,3,13.56,13.56,0,0,1-11.89-1.39,3,3,0,1,0-3,5.18Z" transform="translate(-215.5 -172)"/></svg>