<svg id="Layer_1" data-name="Layer 1" xmlns="http://www.w3.org/2000/svg" viewBox="0 0 949.5 332.94"><defs><style>.cls-1{font-size:105px;font-family:Muli-Regular, Muli;}.cls-1,.cls-3{fill:#1c63cd;}.cls-2{letter-spacing:-0.01em;}</style></defs><text class="cls-1" transform="translate(276.14 304.28)">Secu<tspan class="cls-2" x="235.09" y="0">r</tspan><tspan x="272.05" y="0">eVision</tspan></text><path class="cls-3" d="M589.57,260.41,311.36,164.52a9.3,9.3,0,0,0-11.89,5.73L272.6,249.88a9.43,9.43,0,0,0,5.95,11.87l278.21,95.89a9.28,9.28,0,0,0,11.88-5.73l26.87-79.62A9.44,9.44,0,0,0,589.57,260.41Z" transform="translate(-200.5 -164)"/><path class="cls-3" d="M581.43,351.67l14.72,5.08a5.69,5.69,0,0,0,7.29-3.51l18.26-54.11a5.78,5.78,0,0,0-3.64-7.28l-14.73-5.08a5.7,5.7,0,0,0-7.29,3.51l-18.26,54.11A5.78,5.78,0,0,0,581.43,351.67Z" transform="translate(-200.5 -164)"/><path class="cls-3" d="M463.17,329.15c-7.13,21.12-42.62,28-79.27,15.36s-60.58-40-53.45-61.11" transform="translate(-200.5 -164)"/><rect class="cls-3" y="113.32" width="12.93" height="202.68"/><ellipse class="cls-3" cx="114.05" cy="250.5" rx="27.04" ry="28.42"/><polygon class="cls-3" points="129.66 249.2 114.11 236.77 178.92 147.28 194.46 159.72 129.66 249.2"/><rect class="cls-3" x="255.94" y="360.48" width="14.03" height="107" transform="translate(476.43 -12.97) rotate(90)"/><path class="cls-3" d="M210.5,324c8.58,5.28,20.06,3.49,27.32-3.23,9-8.35,8.46-21.7,5.17-32.53-3.48-11.45-10.14-21.81-11.94-33.78-.78-5.2-.41-10.68,2.2-15.33s7-7.73,11.73-10a71.44,71.44,0,0,1,19.53-5.67,80.07,80.07,0,0,1,21.92-.28c1.61.19,3-1.52,3-3a3.06,3.06,0,0,0-3-3,84.9,84.9,0,0,0-38.77,4.4A42.61,42.61,0,0,0,233,230a25.42,25.42,0,0,0-7.9,14.92c-1.8,12.16,3.5,23.71,8.21,34.57,4.19,9.65,9,22.29,3.8,32.46a16.94,16.94,0,0,1-10.39,8.49,16.64,16.64,0,0,1-6.92.65c-1-.09.29.06-.3,0-.36-.06-.73-.13-1.09-.21a16.49,16.49,0,0,1-1.83-.5,13.25,13.25,0,0,1-3-1.46c-3.3-2-6.31,3.15-3,5.18Z" transform="translate(-200.5 -164)"/></svg>